<svg width="38" height="37" viewBox="0 0 38 37" fill="none" xmlns="http://www.w3.org/2000/svg">
<path d="M18.9937 3.03091C10.6391 3.03091 3.86646 9.80359 3.86646 18.1581C3.86646 26.5126 10.6391 33.2853 18.9937 33.2853C27.3481 33.2853 34.1209 26.5126 34.1209 18.1581C34.1209 9.80359 27.3481 3.03091 18.9937 3.03091ZM19.4174 25.0118C19.0145 25.4146 18.3843 25.4512 17.9402 25.1216L17.813 25.0118L11.7608 18.9597C11.3579 18.5569 11.3214 17.9264 11.6511 17.4822L11.7609 17.355L17.8142 11.3041C18.2573 10.8612 18.9757 10.8613 19.4186 11.3045C19.8213 11.7073 19.8579 12.3376 19.5283 12.7817L19.4183 12.9089L15.3008 17.0246L25.4235 17.0242C25.9979 17.0242 26.4725 17.4509 26.5476 18.0047L26.558 18.1587C26.558 18.7331 26.1311 19.2078 25.5775 19.2828L25.4235 19.2933L15.3038 19.2937L19.4174 23.4073C19.8202 23.8101 19.8568 24.4404 19.5272 24.8846L19.4174 25.0118Z" fill="#E29B50"/>
</svg>
